# xmcd CD database file
#
# Track frame offsets:
#	150
#	3781
#	19372
#	39861
#	63790
#	83312
#	92594
#	107694
#	120505
#	137201
#	145072
#	156131
#	165730
#	178831
#	188769
#
# Disc length: 2705 seconds
#
# Revision: 2
# Processed by: cddbd v1.5.2PL0 Copyright (c) Steve Scherf et al.
# Submitted via: CDex 1.70beta2
#
DISCID=af0a8f0f
DTITLE=Various Artist - BIRDLAND ALL-STARS  AT CARNEGIE HALL [Disc 1]
DYEAR=1954
DGENRE=Jazz
TTITLE0=Lullaby Of Birdland - Count Basie
TTITLE1=You For Me - Count Basie and Frank Foster
TTITLE2=Blues Backstage - Count Basie and JoeNewman
TTITLE3=Perdido /Count Basie and Frank Wess
TTITLE4=The Song Is You - Charlie Parker
TTITLE5=My Funny Valentine - Charie Parker
TTITLE6=Cool Blues - Charie Parker
TTITLE7=The Teenager /Dan Terry
TTITLE8=Two Franks - Count Basie, Frank Foster, Frank Wess
TTITLE9=All Of Me - Billie Holiday
TTITLE10=Ain't Nobody's Business If I Do - Billie Holiday
TTITLE11=Lover Come Back To Home - Billie Holiday
TTITLE12=My Man - Billie Holiday
TTITLE13=Them There Eyes - Billie Holiday
TTITLE14=Lover Man - Billie Holiday
EXTD=Powerd by gracenote music web API YEAR: 1954
EXTT0=
EXTT1=
EXTT2=
EXTT3=
EXTT4=
EXTT5=
EXTT6=
EXTT7=
EXTT8=
EXTT9=
EXTT10=
EXTT11=
EXTT12=
EXTT13=
EXTT14=
PLAYORDER=
